<?xml version="1.0" encoding="UTF-8" standalone="no"?>
<svg
   xmlns:dc="http://purl.org/dc/elements/1.1/"
   xmlns:cc="http://creativecommons.org/ns#"
   xmlns:rdf="http://www.w3.org/1999/02/22-rdf-syntax-ns#"
   xmlns:svg="http://www.w3.org/2000/svg"
   xmlns="http://www.w3.org/2000/svg"
   xmlns:sodipodi="http://sodipodi.sourceforge.net/DTD/sodipodi-0.dtd"
   xmlns:inkscape="http://www.inkscape.org/namespaces/inkscape"
   id="svg1"
   inkscape:version="0.92.5 (2060ec1f9f, 2020-04-08)"
   viewBox="0 0 58.749298 58.749699"
   sodipodi:version="0.32"
   _SVGFile__filename="oldscale/filesystems/mycomp.svg"
   version="1.0"
   y="0"
   x="0"
   sodipodi:docname="IconOszi.svg"
   inkscape:export-filename="/home/mackst/Work/python/AliceLite/Install/IconOszi_bunt.png"
   inkscape:export-xdpi="418.31705"
   inkscape:export-ydpi="418.31705"
   width="58.749298"
   height="58.749699">
  <defs
     id="defs14" />
  <sodipodi:namedview
     id="base"
     bordercolor="#666666"
     inkscape:window-x="1366"
     inkscape:window-y="0"
     pagecolor="#ffffff"
     inkscape:zoom="7.9221584"
     inkscape:pageshadow="2"
     borderopacity="1.0"
     inkscape:current-layer="svg1"
     inkscape:cx="20.744084"
     inkscape:cy="26.348264"
     inkscape:window-width="1920"
     inkscape:pageopacity="0.0"
     inkscape:window-height="1056"
     showgrid="false"
     inkscape:window-maximized="1" />
  <g
     id="g848"
     transform="translate(-0.625,-0.625)">
    <path
       d="m 6.5938,4.6875 c -1.0522,0 -1.9063,0.9849 -1.9063,2.2187 v 37.063 c 0,1.234 0.8541,2.25 1.9063,2.25 h 11.875 c -4.65,2.114 -8.317,5.695 -10.656,9.093 h 44.375 c -2.156,-3.328 -5.465,-6.961 -10,-9.093 h 11.218 c 1.052,0 1.906,-1.016 1.906,-2.25 V 6.9062 c 0,-1.2336 -0.854,-2.2185 -1.906,-2.2185 H 6.5938 Z"
       style="fill:none;stroke:#ffffff;stroke-width:8.125;stroke-linecap:round;stroke-linejoin:round"
       id="path1761"
       inkscape:connector-curvature="0" />
    <path
       transform="translate(4e-7,-0.32097)"
       style="fill:#d9dddf;fill-rule:evenodd;stroke:#000000;stroke-width:3.125;stroke-linecap:round;stroke-linejoin:round"
       d="M 27.27,44.718 C 18.089,44.099 11.467,50.313 7.804,55.634 H 52.196 C 48.877,50.509 43.151,44.252 33.739,44.718 c -1.95,0 -3.787,-0.154 -6.469,0 z"
       id="path859"
       inkscape:connector-curvature="0" />
    <path
       transform="translate(4e-7,-0.32097)"
       style="fill:#d9dddf;fill-rule:evenodd;stroke:#000000;stroke-width:3.125;stroke-linecap:round;stroke-linejoin:round"
       d="m 6.5864,5.008 c -1.0521,0 -1.8991,0.9933 -1.8991,2.2271 v 37.062 c 0,1.234 0.847,2.227 1.8991,2.227 h 46.828 c 1.052,0 1.899,-0.993 1.899,-2.227 V 7.2351 c 0,-1.2337 -0.847,-2.227 -1.899,-2.227 H 6.5864 Z"
       id="rect627"
       inkscape:connector-curvature="0" />
    <path
       d="m 9.5324,8.6604 v 33.57 h 40.936 v -33.57 l -40.936,4e-4 z"
       style="fill:#000000;fill-rule:evenodd"
       id="rect628"
       inkscape:connector-curvature="0" />
    <path
       d="M 10.302,25.445 H 50.211"
       style="fill:none;stroke:#091fe3;stroke-width:1.875;stroke-opacity:1"
       id="path1175"
       inkscape:connector-curvature="0" />
    <path
       d="M 30,9.02 V 41.871"
       style="fill:#0008ff;fill-opacity:0.99722224;stroke:#091fe3;stroke-width:1.875;stroke-opacity:1"
       id="path1176"
       inkscape:connector-curvature="0" />
    <path
       d="m 9.8428,16.42 c 9.5982,-2.88 13.054,19.389 20.925,19.005 7.103,0.384 9.599,-19.773 19.389,-19.965"
       style="fill:none;stroke:#24ef12;stroke-width:2.5;stroke-opacity:1"
       id="path1177"
       inkscape:connector-curvature="0" />
    <path
       d="m 9.5324,8.6604 v 33.57 h 40.936 v -33.57 l -40.936,4e-4 z"
       style="fill:none;stroke:#000000;stroke-width:1.875;stroke-linecap:round;stroke-linejoin:round"
       id="path2420"
       inkscape:connector-curvature="0" />
  </g>
  <metadata
     id="metadata11">
    <rdf:RDF>
      <cc:Work>
        <dc:format>image/svg+xml</dc:format>
        <dc:type
           rdf:resource="http://purl.org/dc/dcmitype/StillImage" />
        <cc:license
           rdf:resource="http://creativecommons.org/publicdomain/zero/1.0/" />
        <dc:publisher>
          <cc:Agent
             rdf:about="http://openclipart.org/">
            <dc:title>Openclipart</dc:title>
          </cc:Agent>
        </dc:publisher>
        <dc:title></dc:title>
      </cc:Work>
      <cc:License
         rdf:about="http://creativecommons.org/publicdomain/zero/1.0/">
        <cc:permits
           rdf:resource="http://creativecommons.org/ns#Reproduction" />
        <cc:permits
           rdf:resource="http://creativecommons.org/ns#Distribution" />
        <cc:permits
           rdf:resource="http://creativecommons.org/ns#DerivativeWorks" />
      </cc:License>
    </rdf:RDF>
  </metadata>
</svg>
